<?xml version="1.0" encoding="utf-8"?>
<!-- Generator: Adobe Illustrator 16.0.0, SVG Export Plug-In . SVG Version: 6.00 Build 0)  -->
<!DOCTYPE svg PUBLIC "-//W3C//DTD SVG 1.1//EN" "http://www.w3.org/Graphics/SVG/1.1/DTD/svg11.dtd">
<svg version="1.1" id="Calque_1" xmlns="http://www.w3.org/2000/svg" xmlns:xlink="http://www.w3.org/1999/xlink" x="0px" y="0px"
	 width="351px" height="90.667px" viewBox="0 0 351 90.667" enable-background="new 0 0 351 90.667" xml:space="preserve">
<g>
	<g>
		<path fill="#64A3DA" d="M18.972,71.007h1.021v6.633h3.778v0.898h-4.799V71.007z"/>
		<path fill="#64A3DA" d="M25.528,71.007h5.465v0.922h-4.471v2.287h4.133v0.871h-4.133v2.553h4.548v0.898h-5.542V71.007z"/>
		<path fill="#64A3DA" d="M34.167,71.007v4.654c0,0.547,0.103,1.002,0.31,1.363c0.306,0.549,0.823,0.82,1.55,0.82
			c0.872,0,1.464-0.295,1.777-0.887c0.169-0.32,0.253-0.754,0.253-1.297v-4.654h1.031v4.229c0,0.928-0.125,1.641-0.376,2.139
			c-0.459,0.91-1.327,1.363-2.603,1.363s-2.142-0.453-2.598-1.363c-0.25-0.498-0.375-1.211-0.375-2.139v-4.229H34.167z"/>
		<path fill="#64A3DA" d="M46.593,71.556c0.521,0.502,0.809,1.072,0.867,1.711h-0.995c-0.111-0.484-0.332-0.869-0.662-1.152
			s-0.795-0.426-1.392-0.426c-0.729,0-1.317,0.26-1.765,0.783c-0.448,0.521-0.672,1.32-0.672,2.398c0,0.883,0.202,1.598,0.607,2.146
			c0.404,0.549,1.008,0.824,1.811,0.824c0.739,0,1.301-0.289,1.687-0.867c0.205-0.303,0.358-0.703,0.458-1.199h0.995
			c-0.088,0.793-0.378,1.457-0.872,1.994c-0.591,0.646-1.389,0.969-2.392,0.969c-0.865,0-1.591-0.264-2.179-0.795
			c-0.774-0.701-1.161-1.783-1.161-3.248c0-1.111,0.291-2.021,0.872-2.734c0.628-0.771,1.495-1.158,2.6-1.158
			C45.342,70.802,46.073,71.052,46.593,71.556z"/>
		<path fill="#64A3DA" d="M49.566,71.007h5.465v0.922h-4.471v2.287h4.133v0.871h-4.133v2.553h4.548v0.898h-5.542V71.007z
			 M53.504,68.931l-1.369,1.482h-0.708l0.938-1.482H53.504z"/>
		<path fill="#64A3DA" d="M57.077,71.007h1.461l2.166,6.367l2.15-6.367h1.451v7.531h-0.974v-4.445c0-0.154,0.003-0.408,0.01-0.764
			s0.011-0.736,0.011-1.145l-2.15,6.354H60.19l-2.17-6.354v0.232c0,0.184,0.005,0.465,0.015,0.842
			c0.01,0.379,0.015,0.656,0.015,0.834v4.445h-0.974V71.007z"/>
		<path fill="#64A3DA" d="M66.699,71.007h1.031v7.531h-1.031V71.007z"/>
		<path fill="#64A3DA" d="M70.113,71.007h5.465v0.922h-4.471v2.287h4.133v0.871h-4.133v2.553h4.548v0.898h-5.542V71.007z"/>
		<path fill="#64A3DA" d="M78.315,76.109c0.023,0.426,0.12,0.773,0.292,1.039c0.326,0.5,0.9,0.75,1.724,0.75
			c0.369,0,0.705-0.055,1.007-0.164c0.586-0.213,0.879-0.592,0.879-1.139c0-0.41-0.125-0.703-0.373-0.877
			c-0.252-0.17-0.646-0.318-1.182-0.445l-0.988-0.23c-0.646-0.15-1.103-0.316-1.371-0.498c-0.463-0.314-0.695-0.785-0.695-1.41
			c0-0.676,0.228-1.232,0.684-1.666s1.101-0.65,1.936-0.65c0.769,0,1.421,0.189,1.958,0.57s0.806,0.99,0.806,1.828h-0.958
			c-0.049-0.402-0.154-0.713-0.315-0.928c-0.298-0.393-0.804-0.59-1.519-0.59c-0.577,0-0.992,0.127-1.244,0.379
			c-0.252,0.254-0.379,0.547-0.379,0.883c0,0.369,0.149,0.639,0.447,0.811c0.195,0.109,0.638,0.246,1.327,0.41l1.023,0.24
			c0.494,0.117,0.875,0.275,1.143,0.477c0.464,0.352,0.695,0.863,0.695,1.533c0,0.834-0.295,1.43-0.887,1.789
			s-1.279,0.539-2.062,0.539c-0.914,0-1.628-0.24-2.145-0.719c-0.517-0.475-0.771-1.119-0.76-1.932H78.315z"/>
		<path fill="#64A3DA" d="M90.45,71.007h1.152l2.733,7.531h-1.118l-0.786-2.256h-2.955l-0.817,2.256h-1.046L90.45,71.007z
			 M92.142,75.453l-1.16-3.328l-1.205,3.328H92.142z"/>
		<path fill="#64A3DA" d="M96.116,71.007h1.031v7.531h-1.031V71.007z"/>
		<path fill="#64A3DA" d="M104.446,71.222c0.737,0.393,1.189,1.082,1.354,2.066h-1.01c-0.12-0.551-0.37-0.951-0.748-1.203
			c-0.378-0.25-0.855-0.377-1.431-0.377c-0.683,0-1.258,0.262-1.725,0.785s-0.7,1.303-0.7,2.338c0,0.896,0.192,1.625,0.578,2.188
			c0.385,0.561,1.013,0.842,1.884,0.842c0.667,0,1.218-0.197,1.655-0.592s0.661-1.033,0.671-1.914h-2.358v-0.846h3.307v4.029h-0.656
			l-0.246-0.969c-0.34,0.379-0.641,0.643-0.903,0.789c-0.44,0.252-1,0.379-1.679,0.379c-0.878,0-1.633-0.289-2.265-0.865
			c-0.689-0.725-1.034-1.721-1.034-2.984c0-1.262,0.336-2.264,1.01-3.01c0.64-0.711,1.469-1.066,2.486-1.066
			C103.334,70.812,103.938,70.949,104.446,71.222z"/>
		<path fill="#64A3DA" d="M109.333,71.007v4.654c0,0.547,0.103,1.002,0.31,1.363c0.306,0.549,0.823,0.82,1.55,0.82
			c0.872,0,1.464-0.295,1.777-0.887c0.169-0.32,0.253-0.754,0.253-1.297v-4.654h1.031v4.229c0,0.928-0.125,1.641-0.376,2.139
			c-0.459,0.91-1.327,1.363-2.603,1.363s-2.142-0.453-2.598-1.363c-0.25-0.498-0.375-1.211-0.375-2.139v-4.229H109.333z"/>
		<path fill="#64A3DA" d="M116.53,71.007h5.465v0.922h-4.471v2.287h4.133v0.871h-4.133v2.553h4.548v0.898h-5.542V71.007z"/>
		<path fill="#64A3DA" d="M124.732,76.109c0.023,0.426,0.12,0.773,0.292,1.039c0.326,0.5,0.9,0.75,1.724,0.75
			c0.369,0,0.705-0.055,1.007-0.164c0.586-0.213,0.879-0.592,0.879-1.139c0-0.41-0.125-0.703-0.373-0.877
			c-0.252-0.17-0.646-0.318-1.182-0.445l-0.988-0.23c-0.646-0.15-1.103-0.316-1.371-0.498c-0.463-0.314-0.695-0.785-0.695-1.41
			c0-0.676,0.228-1.232,0.684-1.666s1.101-0.65,1.936-0.65c0.769,0,1.421,0.189,1.958,0.57s0.806,0.99,0.806,1.828h-0.958
			c-0.049-0.402-0.154-0.713-0.315-0.928c-0.298-0.393-0.804-0.59-1.519-0.59c-0.577,0-0.992,0.127-1.244,0.379
			c-0.252,0.254-0.379,0.547-0.379,0.883c0,0.369,0.149,0.639,0.447,0.811c0.195,0.109,0.638,0.246,1.327,0.41l1.023,0.24
			c0.494,0.117,0.875,0.275,1.143,0.477c0.464,0.352,0.695,0.863,0.695,1.533c0,0.834-0.295,1.43-0.887,1.789
			s-1.279,0.539-2.062,0.539c-0.914,0-1.628-0.24-2.145-0.719c-0.517-0.475-0.771-1.119-0.76-1.932H124.732z"/>
		<path fill="#64A3DA" d="M135.221,71.007h1.461l2.166,6.367l2.15-6.367h1.451v7.531h-0.974v-4.445c0-0.154,0.003-0.408,0.01-0.764
			s0.011-0.736,0.011-1.145l-2.15,6.354h-1.012l-2.17-6.354v0.232c0,0.184,0.005,0.465,0.015,0.842
			c0.01,0.379,0.015,0.656,0.015,0.834v4.445h-0.974V71.007z"/>
		<path fill="#64A3DA" d="M144.031,71.007h1.189l2.165,3.619l2.165-3.619h1.2l-2.853,4.496v3.035h-1.019v-3.035L144.031,71.007z"/>
		<path fill="#64A3DA" d="M152.343,71.007h5.464v0.922h-4.47v2.287h4.132v0.871h-4.132v2.553h4.546v0.898h-5.541V71.007z
			 M156.281,68.931l-1.369,1.482h-0.708l0.938-1.482H156.281z"/>
		<path fill="#64A3DA" d="M159.878,71.007h1.021v6.633h3.777v0.898h-4.799V71.007z"/>
		<path fill="#64A3DA" d="M172.542,72.083c0.498,0.666,0.748,1.52,0.748,2.559c0,1.125-0.285,2.059-0.857,2.805
			c-0.67,0.875-1.625,1.312-2.865,1.312c-1.158,0-2.07-0.383-2.732-1.148c-0.592-0.738-0.887-1.672-0.887-2.801
			c0-1.018,0.252-1.889,0.758-2.613c0.65-0.93,1.61-1.395,2.881-1.395C170.917,70.802,171.901,71.23,172.542,72.083z
			 M171.641,76.884c0.4-0.645,0.602-1.387,0.602-2.225c0-0.887-0.23-1.6-0.693-2.141c-0.464-0.539-1.098-0.811-1.9-0.811
			c-0.779,0-1.415,0.268-1.907,0.805c-0.492,0.535-0.738,1.324-0.738,2.367c0,0.834,0.211,1.539,0.634,2.111
			c0.422,0.572,1.105,0.859,2.053,0.859C170.588,77.851,171.239,77.529,171.641,76.884z"/>
		<path fill="#64A3DA" d="M175.109,71.007h3.255c0.888,0,1.52,0.264,1.895,0.789c0.22,0.311,0.33,0.67,0.33,1.076
			c0,0.477-0.135,0.865-0.405,1.17c-0.14,0.16-0.342,0.307-0.604,0.439c0.386,0.148,0.675,0.314,0.866,0.498
			c0.338,0.328,0.508,0.781,0.508,1.359c0,0.484-0.153,0.924-0.459,1.316c-0.458,0.588-1.186,0.883-2.183,0.883h-3.202V71.007z
			 M177.983,74.191c0.436,0,0.773-0.061,1.016-0.18c0.38-0.188,0.569-0.525,0.569-1.016c0-0.492-0.202-0.822-0.605-0.994
			c-0.229-0.096-0.567-0.145-1.016-0.145h-1.839v2.334H177.983z M178.328,77.667c0.632,0,1.082-0.182,1.351-0.545
			c0.169-0.229,0.254-0.506,0.254-0.83c0-0.547-0.247-0.92-0.74-1.117c-0.262-0.105-0.608-0.16-1.04-0.16h-2.044v2.652H178.328z"/>
		<path fill="#64A3DA" d="M182.767,71.007h1.021v6.633h3.778v0.898h-4.799V71.007z"/>
		<path fill="#64A3DA" d="M191.424,71.007h1.151l2.733,7.531h-1.117l-0.787-2.256h-2.954l-0.817,2.256h-1.046L191.424,71.007z
			 M193.115,75.453l-1.159-3.328l-1.205,3.328H193.115z"/>
		<path fill="#64A3DA" d="M197.526,76.109c0.022,0.426,0.12,0.773,0.291,1.039c0.326,0.5,0.9,0.75,1.724,0.75
			c0.368,0,0.704-0.055,1.008-0.164c0.586-0.213,0.879-0.592,0.879-1.139c0-0.41-0.124-0.703-0.373-0.877
			c-0.251-0.17-0.646-0.318-1.182-0.445l-0.988-0.23c-0.646-0.15-1.103-0.316-1.371-0.498c-0.464-0.314-0.695-0.785-0.695-1.41
			c0-0.676,0.228-1.232,0.684-1.666c0.455-0.434,1.101-0.65,1.936-0.65c0.769,0,1.421,0.189,1.958,0.57s0.807,0.99,0.807,1.828
			h-0.959c-0.05-0.402-0.154-0.713-0.314-0.928c-0.299-0.393-0.805-0.59-1.52-0.59c-0.576,0-0.991,0.127-1.243,0.379
			c-0.253,0.254-0.379,0.547-0.379,0.883c0,0.369,0.149,0.639,0.447,0.811c0.195,0.109,0.638,0.246,1.326,0.41l1.023,0.24
			c0.493,0.117,0.874,0.275,1.143,0.477c0.464,0.352,0.695,0.863,0.695,1.533c0,0.834-0.296,1.43-0.888,1.789
			c-0.591,0.359-1.278,0.539-2.062,0.539c-0.913,0-1.628-0.24-2.145-0.719c-0.517-0.475-0.771-1.119-0.76-1.932H197.526z"/>
		<path fill="#64A3DA" d="M209.969,71.007v0.896h-2.538v6.635h-1.03v-6.635h-2.538v-0.896H209.969z"/>
		<path fill="#64A3DA" d="M211.768,71.007h1.03v7.531h-1.03V71.007z"/>
		<path fill="#64A3DA" d="M221.975,78.517l-0.512,0.619l-1.166-0.885c-0.28,0.154-0.583,0.277-0.91,0.369
			c-0.326,0.092-0.683,0.139-1.068,0.139c-1.169,0-2.085-0.383-2.747-1.148c-0.585-0.746-0.877-1.678-0.877-2.801
			c0-1.018,0.253-1.889,0.759-2.613c0.649-0.93,1.61-1.395,2.882-1.395c1.329,0,2.313,0.426,2.953,1.281
			c0.498,0.666,0.748,1.52,0.748,2.557c0,0.486-0.06,0.953-0.18,1.4c-0.181,0.684-0.485,1.24-0.916,1.67L221.975,78.517z
			 M219.042,77.808c0.185-0.029,0.346-0.088,0.482-0.174l-0.831-0.645l0.513-0.631l0.982,0.766c0.312-0.355,0.523-0.754,0.635-1.195
			s0.167-0.865,0.167-1.268c0-0.887-0.231-1.602-0.694-2.141c-0.464-0.541-1.097-0.812-1.9-0.812c-0.813,0-1.457,0.26-1.933,0.777
			c-0.475,0.52-0.712,1.316-0.712,2.395c0,0.906,0.228,1.629,0.685,2.166s1.128,0.805,2.011,0.805
			C218.658,77.851,218.857,77.837,219.042,77.808z"/>
		<path fill="#64A3DA" d="M224.983,71.007v4.654c0,0.547,0.104,1.002,0.31,1.363c0.307,0.549,0.823,0.82,1.551,0.82
			c0.871,0,1.464-0.295,1.777-0.887c0.169-0.32,0.253-0.754,0.253-1.297v-4.654h1.031v4.229c0,0.928-0.125,1.641-0.376,2.139
			c-0.46,0.91-1.327,1.363-2.603,1.363c-1.276,0-2.143-0.453-2.599-1.363c-0.25-0.498-0.376-1.211-0.376-2.139v-4.229H224.983z"/>
		<path fill="#64A3DA" d="M232.181,71.007h5.465v0.922h-4.471v2.287h4.133v0.871h-4.133v2.553h4.548v0.898h-5.542V71.007z"/>
		<path fill="#64A3DA" d="M240.384,76.109c0.022,0.426,0.12,0.773,0.291,1.039c0.326,0.5,0.9,0.75,1.724,0.75
			c0.368,0,0.704-0.055,1.008-0.164c0.586-0.213,0.879-0.592,0.879-1.139c0-0.41-0.124-0.703-0.373-0.877
			c-0.251-0.17-0.646-0.318-1.182-0.445l-0.988-0.23c-0.646-0.15-1.103-0.316-1.371-0.498c-0.464-0.314-0.695-0.785-0.695-1.41
			c0-0.676,0.228-1.232,0.684-1.666c0.455-0.434,1.101-0.65,1.936-0.65c0.769,0,1.421,0.189,1.958,0.57s0.807,0.99,0.807,1.828
			h-0.959c-0.05-0.402-0.154-0.713-0.314-0.928c-0.299-0.393-0.805-0.59-1.52-0.59c-0.576,0-0.991,0.127-1.243,0.379
			c-0.253,0.254-0.379,0.547-0.379,0.883c0,0.369,0.149,0.639,0.447,0.811c0.195,0.109,0.638,0.246,1.326,0.41l1.023,0.24
			c0.493,0.117,0.874,0.275,1.143,0.477c0.464,0.352,0.695,0.863,0.695,1.533c0,0.834-0.296,1.43-0.888,1.789
			c-0.591,0.359-1.278,0.539-2.062,0.539c-0.913,0-1.628-0.24-2.145-0.719c-0.517-0.475-0.771-1.119-0.76-1.932H240.384z"/>
		<path fill="#64A3DA" d="M250.995,71.007h3.37c0.666,0,1.204,0.188,1.613,0.566c0.41,0.377,0.615,0.908,0.615,1.592
			c0,0.588-0.183,1.1-0.549,1.535c-0.365,0.436-0.925,0.654-1.678,0.654h-2.352v3.184h-1.021V71.007z M254.952,72.042
			c-0.224-0.105-0.531-0.158-0.921-0.158h-2.016v2.609h2.016c0.454,0,0.823-0.098,1.106-0.293s0.425-0.539,0.425-1.031
			C255.562,72.617,255.359,72.242,254.952,72.042z"/>
		<path fill="#64A3DA" d="M258.629,71.007h5.465v0.922h-4.471v2.287h4.133v0.871h-4.133v2.553h4.548v0.898h-5.542V71.007z
			 M262.566,68.931l-1.369,1.482h-0.708l0.938-1.482H262.566z"/>
		<path fill="#64A3DA" d="M266.21,71.007h3.011c1.021,0,1.814,0.367,2.378,1.102c0.502,0.664,0.754,1.512,0.754,2.549
			c0,0.799-0.148,1.521-0.445,2.168c-0.523,1.143-1.422,1.713-2.697,1.713h-3V71.007z M269.021,77.667
			c0.338,0,0.615-0.037,0.832-0.109c0.388-0.133,0.705-0.389,0.952-0.768c0.197-0.305,0.34-0.693,0.427-1.17
			c0.05-0.283,0.075-0.547,0.075-0.789c0-0.934-0.182-1.658-0.544-2.174c-0.363-0.516-0.947-0.773-1.752-0.773h-1.77v5.783H269.021z
			"/>
		<path fill="#64A3DA" d="M274.597,71.007h1.03v7.531h-1.03V71.007z"/>
		<path fill="#64A3DA" d="M280.112,71.007h1.151l2.733,7.531h-1.117l-0.787-2.256h-2.954l-0.817,2.256h-1.046L280.112,71.007z
			 M281.804,75.453l-1.159-3.328l-1.205,3.328H281.804z"/>
		<path fill="#64A3DA" d="M290.257,71.007v0.896h-2.538v6.635h-1.03v-6.635h-2.538v-0.896H290.257z"/>
		<path fill="#64A3DA" d="M291.947,71.007h3.424c0.563,0,1.028,0.084,1.395,0.25c0.694,0.322,1.042,0.916,1.042,1.779
			c0,0.451-0.094,0.82-0.279,1.107c-0.187,0.287-0.447,0.518-0.782,0.693c0.294,0.119,0.516,0.275,0.664,0.471
			s0.231,0.512,0.249,0.949l0.035,1.01c0.011,0.287,0.034,0.5,0.072,0.641c0.062,0.24,0.171,0.393,0.328,0.461v0.17h-1.251
			c-0.034-0.064-0.062-0.148-0.082-0.252c-0.021-0.102-0.038-0.301-0.052-0.594l-0.062-1.256c-0.023-0.492-0.2-0.822-0.533-0.99
			c-0.188-0.092-0.486-0.139-0.892-0.139h-2.256v3.23h-1.021V71.007z M295.261,74.457c0.466,0,0.834-0.096,1.104-0.287
			c0.271-0.191,0.406-0.535,0.406-1.035c0-0.537-0.189-0.902-0.568-1.098c-0.202-0.102-0.474-0.152-0.812-0.152h-2.423v2.572
			H295.261z"/>
		<path fill="#64A3DA" d="M300.258,71.007h1.03v7.531h-1.03V71.007z"/>
		<path fill="#64A3DA" d="M310.465,78.517l-0.512,0.619l-1.166-0.885c-0.28,0.154-0.583,0.277-0.91,0.369
			c-0.326,0.092-0.683,0.139-1.068,0.139c-1.169,0-2.085-0.383-2.747-1.148c-0.585-0.746-0.877-1.678-0.877-2.801
			c0-1.018,0.253-1.889,0.759-2.613c0.649-0.93,1.61-1.395,2.882-1.395c1.329,0,2.313,0.426,2.953,1.281
			c0.498,0.666,0.748,1.52,0.748,2.557c0,0.486-0.06,0.953-0.18,1.4c-0.181,0.684-0.485,1.24-0.916,1.67L310.465,78.517z
			 M307.532,77.808c0.185-0.029,0.346-0.088,0.482-0.174l-0.831-0.645l0.513-0.631l0.982,0.766c0.312-0.355,0.523-0.754,0.635-1.195
			s0.167-0.865,0.167-1.268c0-0.887-0.231-1.602-0.694-2.141c-0.464-0.541-1.097-0.812-1.9-0.812c-0.813,0-1.457,0.26-1.933,0.777
			c-0.475,0.52-0.712,1.316-0.712,2.395c0,0.906,0.228,1.629,0.685,2.166s1.128,0.805,2.011,0.805
			C307.148,77.851,307.348,77.837,307.532,77.808z"/>
		<path fill="#64A3DA" d="M313.474,71.007v4.654c0,0.547,0.104,1.002,0.31,1.363c0.307,0.549,0.823,0.82,1.551,0.82
			c0.871,0,1.464-0.295,1.777-0.887c0.169-0.32,0.253-0.754,0.253-1.297v-4.654h1.031v4.229c0,0.928-0.125,1.641-0.376,2.139
			c-0.46,0.91-1.327,1.363-2.603,1.363c-1.276,0-2.143-0.453-2.599-1.363c-0.25-0.498-0.376-1.211-0.376-2.139v-4.229H313.474z"/>
		<path fill="#64A3DA" d="M320.671,71.007h5.465v0.922h-4.471v2.287h4.133v0.871h-4.133v2.553h4.548v0.898h-5.542V71.007z"/>
		<path fill="#64A3DA" d="M328.874,76.109c0.022,0.426,0.12,0.773,0.291,1.039c0.326,0.5,0.9,0.75,1.724,0.75
			c0.368,0,0.704-0.055,1.008-0.164c0.586-0.213,0.879-0.592,0.879-1.139c0-0.41-0.124-0.703-0.373-0.877
			c-0.251-0.17-0.646-0.318-1.182-0.445l-0.988-0.23c-0.646-0.15-1.103-0.316-1.371-0.498c-0.464-0.314-0.695-0.785-0.695-1.41
			c0-0.676,0.228-1.232,0.684-1.666c0.455-0.434,1.101-0.65,1.936-0.65c0.769,0,1.421,0.189,1.958,0.57s0.807,0.99,0.807,1.828
			h-0.959c-0.05-0.402-0.154-0.713-0.314-0.928c-0.299-0.393-0.805-0.59-1.52-0.59c-0.576,0-0.991,0.127-1.243,0.379
			c-0.253,0.254-0.379,0.547-0.379,0.883c0,0.369,0.149,0.639,0.447,0.811c0.195,0.109,0.638,0.246,1.326,0.41l1.023,0.24
			c0.493,0.117,0.874,0.275,1.143,0.477c0.464,0.352,0.695,0.863,0.695,1.533c0,0.834-0.296,1.43-0.888,1.789
			c-0.591,0.359-1.278,0.539-2.062,0.539c-0.913,0-1.628-0.24-2.145-0.719c-0.517-0.475-0.771-1.119-0.76-1.932H328.874z"/>
	</g>
	<g>
		<path fill="#F5DE33" d="M197.085,18.052c-2.229-0.033-4.063,1.748-4.097,3.979c-0.033,2.229,1.748,4.063,3.979,4.096
			c2.229,0.032,4.063-1.749,4.097-3.978C201.098,19.918,199.315,18.084,197.085,18.052"/>
		<path fill="#F5DE33" d="M190.999,26.084c1.077,0.017,3.018,2.377,5.844,2.418c2.827,0.043,4.925-2.26,5.957-2.245
			c1.03,0.015,2.817,0.579,2.794,2.239c-0.025,1.66-1.203,2.496-1.203,2.496l-2.352,1.131l-0.015,1.033c0,0,2.28,3.712,2.263,4.833
			c-0.016,1.077-1.218,3.484-2.968,3.458c-1.705-0.024-2.314-1.201-2.314-1.201l-1.698-3.525l-1.122-0.017l-1.892,3.473
			c0,0-0.556,1.158-2.216,1.135c-1.659-0.025-2.927-2.377-2.909-3.543c0.018-1.166,2.401-4.631,2.401-4.631l0.018-1.166
			l-2.316-1.201c0,0-1.155-0.78-1.13-2.485C188.256,26.583,189.969,26.069,190.999,26.084"/>
		<path fill="#DD962A" d="M222.113,27.907c-1.554-1.602-4.109-1.638-5.71-0.084c-1.6,1.554-1.638,4.109-0.084,5.709
			c1.555,1.602,4.11,1.639,5.711,0.084C223.631,32.063,223.668,29.506,222.113,27.907"/>
		<path fill="#DD962A" d="M212.13,29.284c0.75,0.771,0.452,3.812,2.421,5.842c1.971,2.027,5.081,1.882,5.801,2.623
			c0.719,0.74,1.584,2.403,0.392,3.559c-1.19,1.158-2.615,0.914-2.615,0.914l-2.463-0.861l-0.74,0.719c0,0-1.014,4.238-1.817,5.019
			c-0.773,0.75-3.324,1.603-4.543,0.347c-1.188-1.224-0.788-2.486-0.788-2.486l1.291-3.694l-0.782-0.804l-3.792,1.117
			c0,0-1.212,0.428-2.368-0.764s-0.39-3.75,0.447-4.562c0.837-0.813,4.973-1.577,4.973-1.577l0.837-0.813l-0.787-2.486
			c0,0-0.267-1.367,0.956-2.555C209.837,27.694,211.411,28.542,212.13,29.284"/>
		<path fill="#B41E1E" d="M232.146,52.208c0.033-2.229-1.748-4.064-3.979-4.098s-4.064,1.749-4.096,3.979
			c-0.033,2.229,1.748,4.062,3.978,4.096C230.279,56.218,232.114,54.437,232.146,52.208"/>
		<path fill="#B41E1E" d="M224.112,46.122c-0.016,1.076-2.377,3.017-2.419,5.843c-0.041,2.826,2.263,4.924,2.246,5.957
			c-0.014,1.029-0.579,2.816-2.238,2.793c-1.66-0.025-2.495-1.203-2.495-1.203l-1.134-2.352l-1.03-0.014
			c0,0-3.714,2.279-4.835,2.262c-1.077-0.016-3.483-1.217-3.457-2.967c0.024-1.705,1.201-2.316,1.201-2.316l3.523-1.696l0.018-1.122
			l-3.474-1.891c0,0-1.158-0.556-1.134-2.216c0.025-1.66,2.376-2.928,3.543-2.91c1.166,0.018,4.632,2.401,4.632,2.401l1.166,0.017
			l1.2-2.315c0,0,0.781-1.155,2.486-1.13C223.614,43.377,224.129,45.09,224.112,46.122"/>
		<path fill="#64A3DA" d="M162.831,51.872c-0.031,2.229,1.75,4.063,3.979,4.097c2.229,0.033,4.063-1.748,4.095-3.978
			c0.033-2.229-1.747-4.064-3.977-4.098C164.698,47.86,162.863,49.642,162.831,51.872"/>
		<path fill="#64A3DA" d="M170.864,57.957c0.017-1.076,2.379-3.016,2.419-5.841c0.041-2.827-2.262-4.926-2.245-5.957
			c0.014-1.031,0.578-2.818,2.238-2.795c1.66,0.025,2.496,1.203,2.496,1.203l1.133,2.352l1.031,0.015c0,0,3.713-2.28,4.834-2.263
			c1.077,0.016,3.483,1.218,3.457,2.968c-0.024,1.705-1.201,2.316-1.201,2.316l-3.523,1.696l-0.018,1.122l3.474,1.891
			c0,0,1.157,0.557,1.134,2.215c-0.025,1.66-2.376,2.928-3.543,2.91c-1.166-0.018-4.631-2.4-4.631-2.4l-1.166-0.018l-1.2,2.316
			c0,0-0.782,1.154-2.487,1.129C171.362,60.701,170.848,58.988,170.864,57.957"/>
		<path fill="#9ABC43" d="M172.337,28.434c-1.6,1.554-1.637,4.109-0.083,5.709c1.555,1.602,4.111,1.639,5.709,0.084
			c1.601-1.553,1.639-4.109,0.084-5.709C176.495,26.917,173.939,26.879,172.337,28.434"/>
		<path fill="#9ABC43" d="M173.714,38.416c0.772-0.75,3.814-0.45,5.843-2.419c2.026-1.971,1.883-5.082,2.623-5.801
			c0.739-0.718,2.401-1.582,3.559-0.392s0.913,2.614,0.913,2.614l-0.86,2.464l0.72,0.739c0,0,4.236,1.014,5.018,1.818
			c0.75,0.773,1.602,3.325,0.346,4.543c-1.223,1.188-2.485,0.788-2.485,0.788l-3.694-1.291l-0.804,0.782l1.118,3.792
			c0,0,0.427,1.212-0.766,2.369c-1.189,1.156-3.75,0.389-4.562-0.448c-0.813-0.837-1.577-4.973-1.577-4.973l-0.813-0.838
			l-2.484,0.789c0,0-1.37,0.266-2.558-0.957C172.126,40.709,172.975,39.137,173.714,38.416"/>
	</g>
	<g>
		<path fill="#64A3DA" d="M26.125,15.595c0.437-0.745,1.117-1.304,2.053-1.364c1.117-0.125,6.766-0.372,7.949-0.125
			c2.294,0.372,3.164,1.242,4.468,3.35c1.307,2.052,2.698,7.987,0.683,11.366c-0.432,0.935-1.116,1.614-2.112,1.987
			c-0.308,0.125-0.745,0.185-1.052,0.064c-0.996-0.312-1.926-0.684-2.923-1.057c-0.372-0.125-0.558-0.186-0.805-0.438
			c-0.372-0.246-0.558-0.992-0.312-1.304c0.312-0.432,0.624-0.804,0.931-1.177c0.749-0.81,0.996-1.741,0.871-2.732
			c-0.187-2.238-0.434-4.412-0.619-6.645c-0.066-0.559-0.438-0.871-0.871-1.183c-0.246-0.121-0.497-0.121-0.684,0.066
			c-0.493,0.493-1.056,1.051-1.489,1.614c-9.424,11.885-4.161,33.472-3.788,34.773c0.125,0.312,0.311,0.619,0.558,0.932
			c0.437,0.559,1.056,0.623,1.615,0.311c0.996-0.557,8.321-8.506,10.123-10.307c0.744-0.745,1.675-1.802,2.545-2.671
			c0.252-0.247,0.624-0.434,0.996-0.498c0.186-0.061,0.432,0,0.619,0.185c0.186,0.188,0.311,0.438,0.251,0.624
			c-0.498,1.178,0.745,10.309,0.558,10.742c-1.056,2.112-4.7,9.161-13.664,10.187c-0.619-0.064-1.117-0.186-1.74-0.438
			c-7.785-3.611-10.802-8.381-10.992-8.568c-0.992-1.055-1.304-2.112-1.551-3.66C16.385,28.249,23.795,17.745,26.125,15.595"/>
		<path fill="#64A3DA" d="M48.651,44.225c0.433-3.295,2.109-6.026,4.16-8.572c0.373-0.433,0.931-0.869,1.429-1.178
			c2.073-1.119,4.468,0.247,5.152,0.559c0.931,0.373,4.785,4.746,5.529,7.326c0.745,2.58,0.992,4.412,0.619,6.584
			c-0.061,0.374-0.044,0.558-0.246,1.118c-2.29,5.596-5.403,6.891-6.893,7.701c-0.871,0.494-1.866,0.559-2.857,0.373
			c-0.498-0.125-0.996-0.252-1.429-0.373c-1.182-0.377-5.428-3.113-5.776-9.377C48.214,46.707,48.465,45.464,48.651,44.225
			 M56.164,50.868c3.388-0.819,1.614-5.963,1.367-6.521c-0.251-0.307-0.414-0.232-0.995,0c-2.452,1.889-1.676,5.405-1.55,5.841
			C55.106,50.68,55.544,50.931,56.164,50.868"/>
		<path fill="#64A3DA" d="M99.25,48.508c-0.619,0.684-1.304,1.243-2.234,1.866c-0.81,0.558-1.494,1.115-2.239,1.861
			c-0.432,0.432-0.679,0.682-1.177,0.93c-0.372,0.188-0.871,0.371-1.369,0.371c-1.302,0-4.046-0.18-6.083-4.903
			c-0.623-1.489-0.934-2.979-1.121-4.658c-0.06-0.559-0.121-0.992-0.307-1.43c-0.66-1.078-3.11-1.297-5.034,1.284
			c-1.925,2.581-2.071,9.67-5.15,12.504c-0.186,0.188-0.433,0.309-0.806,0.373c-1.045,0.062-1.371-0.623-1.869-1.553
			c-0.372-0.621-2.048-3.915-2.606-4.844c-0.498-0.807-0.498-1.677-0.372-2.548c0.311-2.047,0.619-4.096,0.991-6.082
			c0.312-1.68,0.564-3.231,0.685-4.91c0.064-0.867,0.185-1.737-0.187-2.545c-0.121-0.373,0.066-0.807,0.623-0.807
			c0.247,0,0.494,0.062,0.68,0.062c1.122,0.312,2.174,0.558,3.23,0.809c1.182,0.247,1.312,3.078,1.991,4.008
			c0.186,0.312,0.624,0.312,0.997,0.064c0.497-0.311,3.286-4.383,3.905-4.822c1.368-0.99,2.857-1.488,4.537-0.93
			c0.866,0.311,4.282,1.182,4.966,2.051c0.624,0.745,0.996,1.491,0.996,2.361c0,1.549-0.251,2.979-0.624,4.407
			c-0.125,0.438-0.755,3.367,0.996,6.893c0.06,0.373,0.745,0.811,1.178,0.684c1.554-0.496,3.044-1.115,4.412-1.927
			c0.619-0.372,1.178-0.557,1.424-0.06C99.935,47.516,99.81,47.889,99.25,48.508"/>
		<path fill="#64A3DA" d="M111.063,58.392c-0.936,0.721-1.69,1.107-2.435,1.418c-0.558,0.248-1.116,0.436-1.735,0.561
			c-0.871,0.186-1.741,0.186-2.546-0.188c-0.251-0.061-0.498-0.186-0.684-0.246c-1.867-0.559-5.119-2.912-7.265-6.646
			c-0.187-0.252-0.377-0.557-0.498-0.995c-0.438-1.488-0.438-3.164-0.065-4.779c0.497-2.112,4.161-11.862,4.226-12.235
			c0.186-1.117,1.116-1.862,2.233-2.113c0.251-0.06,0.498-0.12,0.685-0.186c0.991-0.433,2.048-0.619,3.165-0.744
			c0.497-0.062,0.995-0.062,1.493-0.062c3.929,0.317,5.031,3.85,4.905,5.03c-0.125,1.118-0.372,2.236-0.744,3.292
			c-0.624,1.862-1.741,3.229-2.983,4.472c-1.178,1.178-2.481,2.174-3.849,3.045c-0.498,0.308-0.87,0.559-1.182,0.931
			c-0.307,0.373-0.619,0.871-0.68,1.303c-0.125,0.745-0.125,1.554-0.064,2.3c0.064,0.618,0.125,1.177,0.372,1.735
			c0.126,0.252,0.372,0.373,0.623,0.311c2.234-0.744,3.91-1.926,5.463-3.163c1.491-1.183,2.919-2.551,4.288-4.039
			c1.428-1.551,3.043-3.23,4.407-4.474c0.744-0.679,1.368-1.302,2.112-2.173c1.304-1.49,2.36-1.238,1.987,0.936
			c-0.185,1.117-0.744,2.295-1.368,3.226C118.689,50.408,111.998,57.671,111.063,58.392 M106.269,37.143
			c-0.372-0.121-0.498,0.063-0.684,0.437c-0.186,0.62-0.433,1.244-0.619,1.863c-0.247,0.623-0.373,1.242-0.558,1.986
			c-0.061,0.188,0,0.623,0.185,0.685c0.373,0.126,0.806-0.062,0.992-0.433c0.498-0.684,0.935-1.43,1.121-2.238
			c0.187-0.559,0.248-1.118,0.187-1.49C106.828,37.514,106.52,37.206,106.269,37.143"/>
		<path fill="#64A3DA" d="M119.613,34.784c0.187-0.494,0.619-0.807,1.178-0.866c0.93-0.126,5.156-0.937,6.459-0.749
			c1.615,0.251,2.793,0.809,3.974,1.74c0.187,0.125,0.373,0.312,0.559,0.498c0.806,0.744,0.996,1.675,0.931,2.669
			c-0.125,1.366-0.497,2.668-1.117,3.911c-0.558,1.183-1.303,1.614-2.671,1.493c-0.62-0.063-0.931-0.562-0.684-1.055
			c0.372-0.871,0.809-1.742,1.182-2.672c0.186-0.498,0.311-0.931,0.372-1.429c0.126-0.619-0.312-1.801-0.992-1.801
			c-0.809,0-1.866,0.559-2.177,1.303c-0.121,0.373-3.621,8.695-1.611,15.65c0.061,0.434,0.619,0.871,1.118,0.807
			c0.558-0.061,1.177-0.434,1.674-0.807c5.125-2.853,8.508-7.575,9.812-9.875c0.125-0.185,0.252-0.372,0.437-0.557
			c0.373-0.435,0.87-0.498,1.304-0.247c0.312,0.186,0.619,0.432,0.805,0.744c0.187,0.312,0.065,0.684-0.12,0.992
			c-1.183,1.429-7.83,11.483-12.482,13.29c-0.87,0-1.741,0.061-2.611,0.188c-3.528-0.555-5.091-3.045-5.525-3.85
			C117.812,51.118,115.811,39.975,119.613,34.784"/>
		<path fill="#64A3DA" d="M140.529,33.293c0.312-1.057,2.424-9.313,3.168-11.798c0.248-0.87,1.058-1.116,1.801-0.995
			c1.429,0.251,2.667,0.498,3.974,0.81c0.559,0.121,0.932,0.498,0.992,0.991c0.247,1.987-0.992,9.503-1.243,11.365
			c-0.121,0.869,0.372,1.242,1.118,1.303c0.498,0.064,0.996,0.064,1.492,0c1.49-0.061,2.979-0.121,4.469-0.186
			c0.251,0,0.624,0.064,0.684,0.186c0.065,0.372-0.185,0.684-0.433,0.935c-0.372,0.372-3.115,2.273-6.087,2.42
			c-0.312,0-0.684,0.187-0.992,0.433c-0.251,0.186-0.559,0.497-0.684,0.809c-0.498,1.179-0.995,10.496-1.303,11.552
			c-0.125,0.373-0.125,0.744-0.125,1.117c0,0.246,0.125,0.497,0.371,0.62c0.312,0.25,0.684,0.25,0.996,0.125
			c0.434-0.188,0.865-0.499,1.238-0.805c1.122-0.937,2.238-1.865,3.416-2.857c0.438-0.374,0.871-0.065,1.056,0.496
			c0.313,0.806,0.062,2.174-0.185,2.854c-0.434,1.309-3.756,9.018-8.261,8.693c-4.506-0.324-5.299-4.029-5.836-5.398
			s-0.806-14.408-0.498-15.776c0.125-0.62-0.246-1.243-0.869-1.363c-1.364-0.252-2.607-0.81-3.851-1.37
			c-0.805-0.371-1.489-0.869-1.987-1.675c-0.121-0.311,0-0.93,0.312-0.93c0.992-0.064,1.987-0.125,2.979-0.188
			c0.996-0.125,1.927-0.185,2.921-0.25C139.91,34.35,140.342,33.917,140.529,33.293"/>
		<path fill="#B41E1E" d="M254.855,57.558c0-0.098-0.05-0.15-0.102-0.248c-0.845-1.293-1.083-0.807-1.333-0.457
			c-0.894,1.242-1.74,2.438-2.832,3.381c-1.442,1.293-3.133,1.592-4.974,0.846c-1.242-0.494-2.337-1.096-3.331-1.938
			c-0.646-0.547-1.194-1.197-1.689-1.941c-0.201-0.299-0.299-0.645-0.35-0.943c-0.543-1.785-2.138-17.79,2.686-24.765
			c0.25-0.597,0.598-1.043,1.044-1.442c0.201-0.197,0.447-0.396,0.696-0.495c0.995-0.4,1.89-0.698,2.836-0.846
			c0.794-0.098,1.592-0.198,2.386-0.299c0.696-0.049,1.395-0.101,2.088-0.049c0.248,0,0.6,0.049,0.846,0.25
			c0.547,0.346,3.085,3.529,3.479,3.826c0.298,0.199,0.847,0.199,1.097-0.1c0.147-0.149,0.249-0.299,0.346-0.495
			c0.596-1.343,1.176-3.157,1.522-3.903c0.3-0.697,5.396-2.448,7.261-1.441c1.863,1.006,1.499,2.01,0.945,4.523
			c-0.298,1.741-3.396,9.383-2.716,26.329c0.15,2.387-1.375,5.545-4.915,5.305C256.307,62.414,255.652,59.445,254.855,57.558
			 M246.144,53.957c0.296,1.363,1.444,1.121,1.693,1.021c0.25-0.1,0.496-0.346,0.698-0.596c1.789-1.89,4.367-4.373,5.414-6.763
			c0.197-0.447,0.06-0.224,0.246-1.145c0.554-2.174-2.021-13.191-4.403-15.031c-0.298-0.447-0.894-0.347-1.241,0.101
			C246.707,33.569,244.84,46.448,246.144,53.957"/>
		<path fill="#B41E1E" d="M324.685,47.655c-0.101,0.397-0.101,0.895-0.052,1.44c0.102,0.301,0.352,0.549,0.601,0.549
			c0.597,0.049,1.191,0.049,1.788,0.15c0.598,0,1.145,0.049,1.74,0.248c0.598,0.15,1.193,0.248,1.74,0.446
			c1.543,0.348,3.034,1.045,4.178,2.039c0.048,0.196,0.149,0.347,0.249,0.495c0.099,0.25,0,0.746-0.201,0.846
			c-0.397,0.102-0.793,0.148-1.144,0.299c-0.246,0.1-0.544,0.148-0.845,0.1c-0.694-0.25-1.343-0.398-2.039-0.447
			c-1.043-0.051-1.938,0.197-2.934,0.646c-0.894,0.396-1.739,0.844-2.436,1.59c-0.996,0.947-1.443,1.99-1.592,3.383
			c-0.048,0.299-0.098,0.598-0.246,0.896c-0.052,0.195-0.351,0.445-0.649,0.547c-0.397,0.049-0.793,0.049-1.191,0
			c-1.096-0.297-4.976-3.932-6.067-5.023c-0.35-0.35-0.547-0.797-0.648-1.342c0-1.143-0.049-2.239,0-3.282
			c0-1.89,0.149-3.729,0.352-5.619c0.047-0.795,2.585-18.846,2.187-19.739c-0.101-0.249-0.049-0.548-0.049-0.748
			c0.049-0.299,0.15-0.545,0.447-0.597c0.943-0.097,1.89-0.298,2.933-0.447c0.598-0.049,1.395-0.15,2.087-0.15
			c0.946,0.053,1.691,0.351,2.489,0.847c0.198,0.148,0.496,0.398,0.597,0.647c0.446,1.194,0.793,2.387,0.793,3.78
			C326.724,30.251,324.984,46.909,324.685,47.655"/>
		<path fill="#B41E1E" d="M296.917,37.014c-0.097-0.25-0.347-0.498-0.548-0.695c-0.147-0.15-0.347-0.15-0.495,0
			c-1.145,0.994-1.938,2.234-2.783,3.48c-0.201,0.297-0.352,0.494-0.649,0.942c-0.745,1.144-1.143,2.09-0.895,3.283
			c0.149,0.797-0.101,1.393-0.596,1.937c-0.548,0.649-1.342,0.846-2.187,0.698c-0.698-0.149-1.293-0.448-1.841-0.896
			c-0.496-0.347-5.472-4.873-6.016-5.668c-0.798-1.145-1.543-2.187-2.34-3.379c-0.198-0.302-0.545-0.25-0.693,0
			c-0.101,0.246-0.2,0.446-0.299,0.744c-0.052,0.198-0.1,0.448-0.1,0.646c-0.048,0.798,0,1.592-0.048,2.388
			c-0.102,0.794-0.698,14.269-0.352,17.104c0.049,0.197,0.049,0.398-0.049,0.598c-0.051,0.146-0.249,0.346-0.397,0.396
			c-0.399,0.098-0.795,0.15-1.145,0.098c-0.794-0.148-1.543-0.395-2.187-0.895c-0.399-0.299-0.794-0.596-1.146-0.941
			c-0.942-0.947-1.244-2.885-1.244-4.131c0-1.388,0.153-3.579,0.351-4.97c0.25-1.691-0.072-12.77,4.027-17.552
			c0.099-0.153,0.299-0.25,0.496-0.301c0.896-0.099,4.427-0.545,4.923-0.396c0.447,0.149,0.696,0.346,0.995,0.744
			c0.745,0.795,3.879,6.615,4.427,7.509c0.447,0.696,0.895,1.391,1.343,1.939c0.298,0.447,0.745,0.696,1.191,0.349
			c0.149-0.1,0.298-0.248,0.399-0.397c0.297-0.399,0.596-0.798,0.845-1.245c0.646-1.093,5.12-7.807,5.717-8.653
			c0.447-0.645,0.847-1.044,1.645-0.843c0.696,0.198,5.466,0.692,6.364,1.241c0.696,0.447,1.144,0.995,1.639,1.643
			c0.448,0.598,0.846,1.092,1.246,1.689c0.147,0.201,0.246,0.499,0.346,0.797c2.994,6.402,2.336,21.382,2.389,22.671
			c0,0.201,0,0.398-0.101,0.6c-0.052,0.197-0.1,0.396-0.25,0.496c-0.845,0.697-1.74,1.342-2.932,1.293
			c-0.448,0-0.947,0.049-1.443,0.049c-0.845-0.049-1.49-0.348-2.187-0.895c-0.896-0.793-1.692-1.639-2.485-2.486
			c-0.899-0.893-1.443-1.889-1.543-3.133C298.263,52.279,297.315,37.957,296.917,37.014"/>
	</g>
</g>
</svg>
